<svg width="24" height="24" viewBox="0 0 24 24" fill="none" xmlns="http://www.w3.org/2000/svg">
<path d="M9.34525 4.875L9.99025 3.21C10.099 2.9281 10.2904 2.68562 10.5393 2.51432C10.7882 2.34302 11.0831 2.25089 11.3852 2.25H12.6152C12.9174 2.25089 13.2123 2.34302 13.4612 2.51432C13.7101 2.68562 13.9015 2.9281 14.0102 3.21L14.6552 4.875L16.8452 6.135L18.6152 5.865C18.91 5.825 19.2099 5.87351 19.477 6.00438C19.7441 6.13526 19.9663 6.34258 20.1152 6.6L20.7152 7.65C20.869 7.91152 20.9398 8.21352 20.9184 8.51613C20.897 8.81874 20.7843 9.10775 20.5952 9.345L19.5002 10.74V13.26L20.6252 14.655C20.8143 14.8923 20.927 15.1813 20.9484 15.4839C20.9698 15.7865 20.899 16.0885 20.7452 16.35L20.1452 17.4C19.9963 17.6574 19.7741 17.8647 19.507 17.9956C19.2399 18.1265 18.94 18.175 18.6452 18.135L16.8752 17.865L14.6852 19.125L14.0402 20.79C13.9315 21.0719 13.7401 21.3144 13.4912 21.4857C13.2423 21.657 12.9474 21.7491 12.6452 21.75H11.3852C11.0831 21.7491 10.7882 21.657 10.5393 21.4857C10.2904 21.3144 10.099 21.0719 9.99025 20.79L9.34525 19.125L7.15525 17.865L5.38525 18.135C5.09052 18.175 4.79056 18.1265 4.52347 17.9956C4.25638 17.8647 4.03423 17.6574 3.88525 17.4L3.28525 16.35C3.1315 16.0885 3.06066 15.7865 3.08209 15.4839C3.10351 15.1813 3.21619 14.8923 3.40525 14.655L4.50025 13.26V10.74L3.37525 9.345C3.18619 9.10775 3.07351 8.81874 3.05209 8.51613C3.03066 8.21352 3.1015 7.91152 3.25525 7.65L3.85525 6.6C4.00423 6.34258 4.22638 6.13526 4.49347 6.00438C4.76056 5.87351 5.06052 5.825 5.35525 5.865L7.12525 6.135L9.34525 4.875Z" stroke="white" stroke-width="2" stroke-linecap="round" stroke-linejoin="round"/>
<path d="M12.0002 16.5C14.4855 16.5 16.5002 14.4853 16.5002 12C16.5002 9.51472 14.4855 7.5 12.0002 7.5C9.51496 7.5 7.50024 9.51472 7.50024 12C7.50024 14.4853 9.51496 16.5 12.0002 16.5Z" stroke="white" stroke-width="2" stroke-linecap="round" stroke-linejoin="round"/>
<path d="M12.0002 7.5V12H16.5002" stroke="white" stroke-linecap="round" stroke-linejoin="round"/>
<path d="M11.9998 12L8.81982 15.18" stroke="white" stroke-linecap="round" stroke-linejoin="round"/>
</svg>
