<svg width="24" height="23" viewBox="0 0 24 23" fill="none" xmlns="http://www.w3.org/2000/svg">
<path d="M18 1.91669H6C4.89543 1.91669 4 2.77481 4 3.83335V19.1667C4 20.2252 4.89543 21.0834 6 21.0834H18C19.1046 21.0834 20 20.2252 20 19.1667V3.83335C20 2.77481 19.1046 1.91669 18 1.91669Z" stroke="white" stroke-width="2" stroke-linecap="round" stroke-linejoin="round"/>
<path d="M12 17.25C14.2091 17.25 16 15.5337 16 13.4166C16 11.2996 14.2091 9.58331 12 9.58331C9.79086 9.58331 8 11.2996 8 13.4166C8 15.5337 9.79086 17.25 12 17.25Z" stroke="white" stroke-width="2" stroke-linecap="round" stroke-linejoin="round"/>
<path d="M12 5.75H12.01" stroke="white" stroke-width="2" stroke-linecap="round" stroke-linejoin="round"/>
</svg>
